<?xml version="1.0" encoding="utf-8"?>
<!-- Generator: Adobe Illustrator 25.0.0, SVG Export Plug-In . SVG Version: 6.00 Build 0)  -->
<svg version="1.1" id="Layer_1" xmlns="http://www.w3.org/2000/svg" xmlns:xlink="http://www.w3.org/1999/xlink" x="0px" y="0px"
	 viewBox="0 0 1080 1080" style="enable-background:new 0 0 1080 1080;" xml:space="preserve">
<style type="text/css">
	.st0{fill:#799163;}
	.st1{fill:#EDE0A6;}
	.st2{fill:#1B5B36;}
	.st3{font-family:'Italianno-Regular';}
	.st4{font-size:263.6956px;}
	.st5{fill:none;stroke:#EDE0A6;stroke-miterlimit:10;}
	.st6{fill:#B71724;}
	.st7{fill:#FBFBFC;}
	.st8{fill:#540202;}
	.st9{fill:none;stroke:#EDE0A6;stroke-width:0.25;stroke-miterlimit:10;}
	.st10{fill:#F4E3C6;}
	.st11{font-size:26.1557px;}
</style>
<g>
	<path class="st0" d="M1028,855.73c-317.9-1.73-635.79-3.45-953.69-5.18c-0.24-17.08-0.43-42.41,0-73.05
		C75.76,673.64,77.94,518.23,103,432c43.47-149.61,222.3-319.72,445.63-319.26c231.29,0.47,387.34,183.45,434.08,294.65
		c21.52,51.2,31.5,94.18,36.62,122.82c8.59,48.1,7.85,80.28,8.13,202.53C1027.57,788.99,1027.85,833.15,1028,855.73z"/>
	<path class="st1" d="M1008.85,510.61c4.63,29,6.39,58.72,6.51,88.12c0.21,52.24,0.28,104.48,0.31,156.72
		c3.62,0.02,7.22,0.11,10.78,0.28c-0.04-53.09-0.12-106.18-0.41-159.26c-0.17-32.42-2.03-65.41-8.21-97.14
		C971.87,263.32,753.4,94.09,521.46,113.46C269.04,134.55,78.51,329.37,75.75,578.73c-0.67,60.27-1.11,120.55-1.48,180.83
		c3.62-0.33,7.24-0.58,10.87-0.73c0.41-62.88,0.92-125.76,1.65-188.64c2.73-234.91,196.46-430.28,432.45-446.23
		C756.71,107.91,971.59,277.21,1008.85,510.61z"/>
	<g>
		<g>
			<path class="st1" d="M676.69,287.56c-38.21,10.77-50.46,41.31-59.4,74.99c-6.96,26.23-14.63,52.33-23.47,77.97
				c-7.78,22.54-27.67,28.88-48.73,28.93c-21.1,0.05-40.99-6.36-48.86-28.77c-8.6-24.49-15.72-49.55-22.5-74.63
				c-8.79-32.56-18.76-63.69-54.7-77.1c-2.5-0.93-5.07-10.03-3.43-12.25c7.99-10.85,15.56-23.83,26.64-30.25
				c40.09-23.22,84.84-26.76,129.6-21.36c24.87,3,49.56,10.8,73.2,19.49C662.25,250.91,674.69,264.48,676.69,287.56z"/>
			<path class="st1" d="M336.5,354.75c3.4-25.9,23.91-50.73,46.87-55.68c5.9-1.27,15.13,0.28,18.96,4.25
				c13.8,14.35,29.43,28.58,38.01,45.99c18.58,37.69,33.24,77.32,49.48,116.1c-31.58,26.87-75.37,17.86-91.48-19.17
				c-5.51-12.66-9.31-26.1-13.5-39.3C376.86,381.77,366.37,358.99,336.5,354.75z"/>
			<path class="st1" d="M600.21,466.13c15.4-37.45,28.84-74.45,45.84-109.74c8.78-18.22,22.74-34.42,36.47-49.63
				c10.38-11.5,23.95-11.06,37.55-1.98c17.62,11.76,30.22,26.42,34.86,49.57c-34.67,5.05-43.62,32.15-51.94,59.87
				c-2.82,9.4-6.06,18.67-9.24,27.96C678.78,485.88,641.86,489.45,600.21,466.13z"/>
			<path class="st1" d="M705.45,471.35c6.53-14.48,13.05-29.84,20.35-44.83c5.52-11.34,10.7-23.23,18.39-33.03
				c12.41-15.79,30.12-16.04,42.6-0.61c24.86,30.74,35.79,65.87,26.01,105.07c-6.19,24.8-21.04,29.87-42.65,16.06
				C748.46,500.15,727.14,485.69,705.45,471.35z"/>
			<path class="st1" d="M384.55,471.52c-20.92,13.79-41.38,27.46-62.02,40.84c-25,16.22-39.99,10.91-46.14-18.18
				c-7.9-37.31,2.49-70.98,26.02-100.31c13.21-16.48,30.45-16.48,43.72,0.04c7.44,9.26,12.54,20.58,17.77,31.42
				C371.38,440.84,378,456.76,384.55,471.52z"/>
		</g>
	</g>
	<g>
		<g>
			<g>
				<path class="st2" d="M766.26,677.98c-7.45,7.76-17.51,12.09-28.07,20.44c22.11,0,41.6,0.69,61.02-0.27
					c11.24-0.55,9.12,6.08,9.4,12.55c0.29,6.86,0.43,11.55-9.46,11.41c-42.79-0.63-85.6-0.27-128.8-1.15
					c34.08-9.07,64.68-25.06,93.07-45.45C765.86,674.6,766.36,675.94,766.26,677.98z"/>
			</g>
			<g>
				<path class="st2" d="M319.4,661.37c0.86-0.85,1.73-1.69,2.59-2.54c25.57,25.46,56.31,42.34,90.02,54.36
					c2.37,0.85,7.88,0.49,5.8,5.16c-1.35,3.05-5.12,0.11-7.47-0.77C376.32,704.88,343.71,689.82,319.4,661.37z"/>
			</g>
			<g>
				<path class="st2" d="M319.4,661.37c-6.71-4.8-4.7,1.51-4.73,4c-0.16,14.71-0.43,29.45,0.12,44.14c0.28,7.42-2.85,9.25-9.25,8.27
					c-5.02-0.78-12.24,3.2-12.06-7.48c0.48-28,0.16-56.02,0.16-86.51c10.36,12.81,19.36,23.92,28.35,35.03
					C322.5,661.08,321.65,661.94,319.4,661.37z"/>
			</g>
			<g>
				<path class="st2" d="M766.26,677.98c-0.95-0.82-1.9-1.65-2.85-2.47c14.17-12.52,26.91-26.33,38-41.67
					c1.39-1.92,2.66-6.21,6.09-3.49c2.74,2.17-0.69,4.4-1.94,6.04C793.95,651.64,782.46,667.05,766.26,677.98z"/>
			</g>
			<g>
				<text transform="matrix(1 0 0 1 101.8569 721.4834)" class="st2 st3 st4">P</text>
			</g>
			<g>
				<text transform="matrix(1 0 0 1 835.7715 722.2031)" class="st2 st3 st4">O</text>
			</g>
		</g>
	</g>
	<g>
		<path class="st1" d="M292.03,560.42c1.88-8.71,8.39-9.09,15.45-8.72c3.82,0.2,5.86,1.89,5.81,5.8c-0.22,17.7-0.42,35.41-0.83,53.1
			c-0.02,0.8-2.07,1.55-3.17,2.32C298.67,597.02,292.67,579.6,292.03,560.42z"/>
		<path class="st1" d="M810.19,570.85c-1.83,0.75-3.67,1.5-5.5,2.26c-29.4-0.21-58.82-1.08-88.19-0.33
			c-11.42,0.29-10.77-5.25-11.36-13.21c-0.68-9.23,3.51-10.25,11.04-10.16c27.31,0.32,54.63,0.14,81.95,0.15
			c15.35,0.01,15.36,0.01,13.14,15.09C810.97,566.73,810.55,568.79,810.19,570.85z"/>
		<g>
			<path class="st1" d="M519.16,713.63c-16.54-42.97-33.07-85.94-49.67-128.89c-0.46-1.2-1.63-2.12-2.47-3.17
				c-2.31-3.09-0.85-6.26-0.23-9.42c3.7-7.85,7.39-15.7,12.2-25.91c21.93,54.73,42.94,107.15,63.95,159.57
				c2.66,3.59,5.47,7.15,2.75,11.98c-7.39,2.69-15.04,0.82-22.56,1.2C519.62,719.16,518.09,717.19,519.16,713.63z"/>
			<path class="st1" d="M682.7,556.81c2.26,18.84,0.61,37.74,0.93,56.61c0.31,17.86,0.06,35.73-0.01,53.6
				c-0.01,2.73,0.97,6.24-1.7,7.83c-3.45,2.05-5.66-1.58-7.92-3.36c-32.46-25.56-64.84-51.24-97.26-76.86
				c-1.36-1.07-2.93-1.87-4.4-2.79c-5.06-1.55-9.32-4.61-13.82-7.27c-5.3-7.69-3.08-16.3-2.1-24.37c0.68-5.58,4.88-7.38,9.92-2.99
				c5.78,5.04,10.13,11.67,17.11,15.38c28.4,23.31,56.8,46.61,85.2,69.92c3.11,0.71,6.18,4.05,9.31,0.06
				c2.09-24.6,0.26-49.19,0.98-73.75C679.08,564.58,677.42,559.54,682.7,556.81z"/>
			<path class="st1" d="M583.46,572.59c-8.11-1.07-11.38-8.45-16.7-13.07c-5.07-4.41-7.94-2.5-8.27,2.73
				c-0.46,7.19-3.78,15.22,3.36,21.34c2.06,2.4,1.3,5.16,1.28,7.96c-0.22,38.09-0.07,76.18-0.15,114.26
				c-0.01,3.2,0.43,6.26,1.55,9.23c77.28-3.28,148.73-22.25,205.67-78.41c17.69-17.45,30.44-38.3,34.48-63.51
				c1.09-2.54,2.78-3.64,5.5-2.26c-5.78,36.86-27.12,63.99-55.2,86.41c-45.8,36.57-99.49,53.43-156.76,60.51
				c-13.89,1.72-27.88,3.12-41.95,2.19c-2.02-1.46-1.75-3.54-1.74-5.68c0.13-51.49,0.04-102.99,0.08-154.48
				c0-2.07-0.32-4.23,1.07-6.07c0.48-3.96,1.2-7.51,5.87-2.9C568.88,558.06,576.16,565.33,583.46,572.59z"/>
			<path class="st1" d="M519.16,713.63c8.35,7.88,17.35,5.28,26.42,1.65c2.96,0.79,3.26,2.51,1.72,4.88
				c-70.63-0.97-136.74-16.93-194.6-59.46c-17.6-12.94-32.87-28.28-43.41-47.78c-1.62-14.81,0.77-29.61,0.22-44.43
				c-0.51-13.65-2.23-14.84-14.47-8.85c-0.94,0.46-1.97,0.64-3.01,0.77c-3.29-8.3-0.49-11.24,8.38-11.08
				c22.43,0.4,44.88-0.05,67.31,0.13c22.46,0.18,36.2,13.76,37.61,36.71c1.52,24.92-11.61,42.63-34.1,44.89
				c-7.54,0.76-15.52,2.07-24.77-2.04c6.97-3.25,12.51-2.01,17.82-2.08c23.17-0.31,35.83-13.29,36.04-37.13
				c0.2-23.53-11.43-35.26-35.6-35.6c-13.67-0.19-27.35,0.22-41.02-0.16c-6.55-0.18-8.47,2.35-8.32,8.6
				c0.35,15.41,0.37,30.84,0.07,46.26c-0.12,6.24,2.95,10.61,6.47,15.01c30.73,38.47,71.99,60.62,117.89,75.12
				C465.58,707.2,491.98,712.78,519.16,713.63z"/>
			<path class="st1" d="M466.8,572.15c0.08,3.14,0.15,6.28,0.23,9.42c-13.95,27.88-27.89,55.77-41.83,83.65
				c-1.46-0.73-2.92-1.47-4.38-2.2C436.14,632.73,451.47,602.44,466.8,572.15z"/>
			<path class="st1" d="M682.7,556.81c0,30.33,0,60.66,0,91.19c-3.42-0.2-2.78-2.57-3.8-3.6c-2.74-0.94-2.11-3.29-2.11-5.28
				c-0.03-26.94-0.03-53.89-0.01-80.83c0-4.65-0.59-10.17,6.99-5.83C683.41,553.9,683.06,555.35,682.7,556.81z"/>
		</g>
	</g>
	<path class="st5" d="M447.22,734.88c21.63,8.74,59.77,20.85,108.2,19.09c38.57-1.4,69.31-11.08,89.1-19.09"/>
	<g>
		<ellipse class="st6" cx="81.91" cy="776.58" rx="5.7" ry="6.03"/>
		<ellipse class="st7" cx="81.91" cy="792.66" rx="5.7" ry="6.03"/>
		<ellipse class="st2" cx="81.91" cy="808.74" rx="5.7" ry="6.03"/>
	</g>
	<g>
		<ellipse class="st6" cx="1019.69" cy="776.58" rx="5.7" ry="6.03"/>
		<ellipse class="st7" cx="1019.69" cy="792.66" rx="5.7" ry="6.03"/>
		<ellipse class="st2" cx="1019.69" cy="808.74" rx="5.7" ry="6.03"/>
	</g>
	<g>
		<g>
			<path class="st1" d="M586.44,162c-0.07,0.19-0.18,0.38-0.22,0.57c-0.63,3.24-2.34,5.6-5.6,6.55c-0.98,0.29-2.07,0.35-3.1,0.27
				c-2.54-0.18-3.73-1.85-3.24-4.37c0.05-0.24,0.12-0.48,0.2-0.8c1,1.24,2.3,1.26,3.66,1.1c1.58-0.19,2.81-0.94,3.58-2.36
				c0.66-1.2,1.01-2.47,0.8-3.85c-0.31-2.05-1.63-3.16-3.72-3.15c-2.14,0-3.68,1.03-4.61,2.88c-0.67,1.32-1.21,2.72-1.7,4.12
				c-1.27,3.62-2.78,7.1-5.14,10.16c-3.33,4.33-7.62,7.08-13.11,7.64c-7.41,0.75-14.08-1.04-19.58-6.26
				c-3.84-3.64-5.9-8.23-6.67-13.42c-0.17-1.17-0.27-2.35-0.32-3.52c-0.05-1.27-0.01-2.55,0.09-3.82c0.34,1.67,0.61,3.36,1.04,5.01
				c1.12,4.33,2.95,8.31,6.04,11.62c3.4,3.64,7.63,5.52,12.55,5.93c2.88,0.24,5.73,0.06,8.53-0.65c4.12-1.05,7.31-3.44,9.54-7.01
				c1.51-2.42,2.77-5.01,4.12-7.53c1.06-1.97,2.15-3.91,3.87-5.4c1.99-1.72,4.32-2.52,6.93-2.13c3.03,0.45,5.35,3,5.83,6.21
				c0.03,0.19,0.15,0.38,0.22,0.56C586.44,160.92,586.44,161.46,586.44,162z"/>
			<path class="st1" d="M520.91,178.39c0.52-1.96,2.14-2.77,3.85-3.69c-0.26,0.3-0.42,0.49-0.59,0.67c-0.18,0.2-0.37,0.39-0.55,0.6
				c-1.58,1.87-1.48,3.45,0.33,5.11c1.51,1.38,3.33,2.25,5.22,2.97c4.5,1.72,9.19,2.57,13.98,2.96c5.54,0.46,11.07,0.31,16.58-0.28
				c4.61-0.49,9.17-1.26,13.47-3.09c1.08-0.46,2.12-1.06,3.06-1.74c2.21-1.61,1.44-3.49,0.14-4.71c-1.35-1.26-3.02-1.94-4.73-2.51
				c-0.82-0.28-1.65-0.5-2.47-0.85c0.76,0.06,1.52,0.11,2.27,0.2c2.06,0.23,4.1,0.56,6.03,1.36c2.3,0.96,3.82,2.52,3.95,5.15
				c0.08,1.51-0.45,2.77-1.48,3.83c-1.49,1.52-3.36,2.39-5.33,3.09c-4.4,1.55-8.98,2.14-13.61,2.46
				c-5.26,0.36-10.53,0.37-15.78-0.16c-6.05-0.61-11.99-1.76-17.56-4.31c-1.41-0.65-2.75-1.5-4.05-2.37
				c-1.31-0.88-2.3-2.06-2.74-3.63C520.91,179.08,520.91,178.74,520.91,178.39z"/>
			<path class="st1" d="M560.83,143.88c0.82,0.12,1.47,0.22,2.12,0.32c2.47,0.4,4.92,0.87,7.22,1.88c0.89,0.39,1.78,0.88,2.53,1.49
				c1.49,1.21,1.52,2.79,0.18,4.17c-1,1.03-2.25,1.7-3.56,2.25c-3.4,1.44-6.98,2.12-10.63,2.54c-5.84,0.67-11.67,0.55-17.48-0.28
				c-3.4-0.48-6.76-1.15-9.84-2.77c-0.82-0.43-1.61-1.02-2.26-1.69c-0.96-0.99-0.94-2.21,0.01-3.23c0.58-0.62,1.3-1.11,1.96-1.66
				c0.04,0.05,0.09,0.09,0.14,0.14c-0.29,0.36-0.61,0.7-0.88,1.07c-0.69,0.96-0.63,1.75,0.18,2.61c0.79,0.84,1.81,1.32,2.86,1.73
				c2.49,0.97,5.09,1.44,7.73,1.77c3.66,0.46,7.33,0.59,11.01,0.42c3.95-0.18,7.87-0.65,11.63-1.98c1.01-0.36,1.98-0.88,2.93-1.38
				c0.39-0.2,0.73-0.51,1.04-0.82c1.12-1.12,1.16-2.43-0.05-3.43c-1.14-0.95-2.24-1.54-3.06-1.83c0,0-2.37-0.84-5.5-1.16l0,0
				C559.13,144.06,559.7,144,560.83,143.88z"/>
		</g>
		<g>
			<path class="st2" d="M546.02,147.91c-0.11-1.49,0.29-2.82,0.96-4.08c0.66-1.26,1.56-2.33,2.6-3.3c1.8-1.69,3.53-3.44,4.95-5.47
				c0.76-1.08,1.43-2.22,1.74-3.52c0.28-1.13,0.18-2.21-0.55-3.2c0.32,0.3,0.66,0.58,0.95,0.91c1.67,1.88,2.08,4.03,1.37,6.42
				c-0.62,2.08-1.89,3.69-3.64,4.92c-1.22,0.86-2.5,1.64-3.76,2.45c-1.39,0.9-2.73,1.87-3.68,3.26
				C546.62,146.8,546.35,147.34,546.02,147.91z"/>
			<path class="st7" d="M542.72,144.49c0.05-2.2,0.97-3.99,2.6-5.44c1.18-1.05,2.32-2.14,3.22-3.44c0.34-0.48,0.63-1,0.88-1.54
				c0.45-0.98,0.59-1.97-0.16-2.95c1.8,1,2.66,2.8,1.92,4.65c-0.58,1.47-1.66,2.54-2.88,3.48c-0.84,0.65-1.71,1.25-2.56,1.88
				C544.24,142.23,543.64,142.92,542.72,144.49z"/>
			<path class="st6" d="M539.08,140.79c0.04-1.59,0.7-2.89,1.88-3.93c0.85-0.76,1.67-1.55,2.33-2.49c0.24-0.35,0.46-0.73,0.64-1.11
				c0.33-0.71,0.42-1.43-0.11-2.13c1.3,0.72,1.92,2.02,1.39,3.36c-0.42,1.06-1.2,1.83-2.08,2.51c-0.61,0.47-1.24,0.9-1.85,1.36
				C540.18,139.16,539.74,139.65,539.08,140.79z"/>
		</g>
	</g>
	<g>
		<g>
			<path class="st8" d="M501.55,472.7c0,20.23-6.48,37.43-19.42,51.59c-12.95,14.16-28.45,19.91-46.49,17.24
				c-12.62-1.86-22.66-7.79-30.1-17.78c-7.45-10-11.17-20.96-11.17-32.9c0-11.94,2.14-22.15,6.43-30.66
				c4.29-8.5,7.77-13.25,10.44-14.26c0.49-0.33,0.81-0.17,0.97,0.5c0,1.17-0.24,2.29-0.73,3.38c-6.48,14.29-9.71,24.99-9.71,32.11
				c0,10.6,4.23,19.36,12.69,26.28c8.46,6.92,18.07,10.38,28.83,10.38c14.97,0,26.93-4.37,35.87-13.11
				c8.94-8.74,13.41-18.41,13.41-29.01c0-5.34-0.66-11.54-1.98-18.59c-1.32-7.05-3.89-20.82-7.71-41.29
				c-3.82-20.48-5.73-34.86-5.73-43.16c0-8.29,1.09-15.92,3.28-22.88c0.49-0.49,1.01-0.73,1.58-0.73c0.56,0,2.19,2.77,4.86,8.32
				c2.67,5.54,4.01,9.15,4.01,10.8c0,1.66-0.59,3.88-1.76,6.68c-1.17,2.79-1.76,5.48-1.76,8.07s1.03,9.44,3.08,20.55
				c0.93,7.27,2.57,15.92,4.93,25.94C499.4,449.19,501.46,463.36,501.55,472.7z"/>
			<path class="st8" d="M577.05,469.62c0,15.7-4.69,29.25-14.08,40.67c-2.83,3.32-9.19,5.62-19.06,6.92
				c-9.87,1.29-16.67,1.78-20.39,1.46c-3.72-0.41-7.08-0.69-10.08-0.85l-0.24-1.09c1.13-1.62,11-6.39,29.62-14.32
				c18.61-7.93,28.28-14.73,29.01-20.39c-0.32-0.65-0.73-1.54-1.21-2.67l-1.94-0.85c-4.53,1.86-8.54,2.79-12.02,2.79
				c-8.9,0-13.35-5.71-13.35-17.12c0-3.64,0.65-8.17,1.94-13.6c1.29-5.42,2.75-8.66,4.37-9.71c1.78-1.05,4.21-1.58,7.28-1.58
				c3.07,0,5.83,0.89,8.25,2.67C573.08,447.94,577.05,457.16,577.05,469.62z"/>
			<path class="st8" d="M595.99,482.45c0-4.27,0.99-9.12,2.97-14.54c1.98-5.42,4.31-8.48,6.98-9.17c2.67-0.69,5.66-0.79,8.98-0.3
				c5.58,1.05,10.03,4.65,13.35,10.8c0.65,2.02,1.5,4.01,2.55,5.95c1.7,3.16,7.12,4.09,16.27,2.81l-0.73,23.67
				c-0.08,0.49-3.72,0.69-10.92,0.61c-3,8.58-6.01,15.62-9.04,21.12c-3.03,5.5-7.14,10.12-12.32,13.84
				c-7.93,5.91-18.94,8.62-33.02,8.13c-0.73,0.16-2.79,0.42-6.19,0.79c-3.4,0.36-5.38,0.1-5.95-0.79v-1.34
				c0.16-0.57,9.53-5.73,28.1-15.48c18.57-9.75,28.3-17.22,29.19-22.4l-0.73-1.09c-3.97-0.73-9.67-1.78-17.12-3.16
				C600.11,499.51,595.99,493.02,595.99,482.45z"/>
			<path class="st8" d="M652.8,478.12c8.74,0,16.22-2.71,22.46-8.13c1.7-1.38,2.67-2.39,2.91-3.03c0-4.53-5.18-14.85-15.54-30.95
				c-10.36-16.1-15.54-27.47-15.54-34.11c0-1.94,0.32-3.84,0.97-5.71c3.32-8.74,6.56-14.45,9.71-17.12
				c12.06-9.95,38.48-23.95,79.27-42c2.18-0.73,0.08,4.39-6.31,15.36c-6.39,10.97-10.24,16.69-11.53,17.18
				c-0.33,0.16-0.59,0-0.79-0.49c-0.2-0.49-0.04-1.56,0.49-3.22c0.53-1.66,0.79-2.69,0.79-3.1c0-0.4-0.16-0.61-0.49-0.61
				c-3.16,0.65-14.31,6.55-33.44,17.72c-19.14,11.17-28.99,17.44-29.56,18.82c-0.32,0.65,2.22,5,7.65,13.05
				c5.42,8.05,10.2,16.25,14.32,24.58c4.13,8.34,6.19,15.7,6.19,22.09c0,6.39-0.82,11.65-2.45,15.78
				c-7.83,19.75-19.64,29.13-35.42,28.16h-1.58l0.12-24.4C648.26,478.08,650.85,478.12,652.8,478.12z"/>
		</g>
	</g>
	<g>
		<g>
			<g>
				<g>
					<line class="st9" x1="734.01" y1="835.11" x2="1026.47" y2="835.11"/>
				</g>
			</g>
			<g>
				<g>
					<line class="st9" x1="734.01" y1="841.91" x2="1026.47" y2="841.91"/>
				</g>
			</g>
		</g>
		<g>
			<g>
				<g>
					<line class="st9" x1="74.27" y1="835.11" x2="366.73" y2="835.11"/>
				</g>
				<g>
					<line class="st9" x1="74.27" y1="841.91" x2="366.73" y2="841.91"/>
				</g>
			</g>
			<line class="st9" x1="74.27" y1="826.89" x2="1026.47" y2="826.89"/>
		</g>
	</g>
	<g>
		<text transform="matrix(1 0 0 1 532.8662 843.624)" class="st10 st3 st11">Brunch</text>
	</g>
</g>
</svg>
